<?xml version="1.0" standalone="no"?>
<!DOCTYPE svg PUBLIC "-//W3C//DTD SVG 20010904//EN"
 "http://www.w3.org/TR/2001/REC-SVG-20010904/DTD/svg10.dtd">
<svg version="1.0" xmlns="http://www.w3.org/2000/svg"
 width="200.000000pt" height="200.000000pt" viewBox="0 0 200.000000 200.000000"
 preserveAspectRatio="xMidYMid meet">
<metadata>
Created by potrace 1.11, written by Peter Selinger 2001-2013
</metadata>
<g transform="translate(0.000000,200.000000) scale(0.100000,-0.100000)"
fill="#000000" stroke="none">
<path d="M920 1892 c-286 -23 -566 -206 -708 -464 -190 -341 -126 -786 152
-1061 168 -167 367 -254 601 -263 258 -10 498 85 677 269 117 120 190 252 232
417 31 125 30 324 -3 438 -102 351 -381 601 -732 657 -43 7 -172 11 -219 7z
m255 -166 c39 -9 113 -38 165 -63 78 -39 110 -62 181 -133 97 -96 154 -187
195 -315 75 -234 18 -510 -146 -703 l-20 -24 -43 31 c-23 17 -66 40 -95 51
l-53 20 16 -29 c21 -42 19 -56 -15 -94 -62 -71 -203 -107 -395 -102 -167 5
-279 42 -331 110 -26 35 -26 37 -11 75 l15 39 -49 -20 c-28 -10 -52 -19 -54
-19 -2 0 -20 -14 -40 -31 -41 -36 -45 -35 -100 41 -48 66 -98 172 -121 255
-25 93 -26 273 -1 365 29 108 99 237 172 317 127 139 275 215 480 246 49 7
186 -2 250 -17z"/>
<path d="M959 1319 c-29 -29 -23 -85 12 -112 66 -49 124 52 68 119 -17 20 -56
17 -80 -7z"/>
<path d="M972 1078 c-16 -16 -15 -50 2 -73 12 -17 18 -18 40 -7 43 19 32 92
-14 92 -9 0 -21 -5 -28 -12z"/>
<path d="M978 888 c-34 -141 -132 -298 -185 -298 -25 0 -12 -19 20 -29 104
-32 270 -32 375 0 41 13 40 21 -2 42 -60 28 -137 168 -167 301 -7 31 -15 56
-18 56 -3 0 -14 -32 -23 -72z"/>
<path d="M687 567 c-40 -31 -35 -73 12 -104 138 -93 514 -85 617 12 40 38 41
44 13 79 -26 33 -37 33 -41 -1 -10 -89 -327 -127 -504 -62 -53 20 -82 54 -71
83 8 20 7 20 -26 -7z"/>
</g>
</svg>
